<?xml version="1.0" encoding="UTF-8"?>
<svg id="Layer_1" data-name="Layer 1" xmlns="http://www.w3.org/2000/svg" viewBox="0 0 393.22 124.41">
  <path d="M268.94,58.36c.31,.06,.58,.1,.85,.16,4.14,.81,8.29,1.53,12.4,2.47,3.33,.76,6.53,1.96,9.26,4.11,4.33,3.39,7.03,7.88,8.64,13.07,.03,.1,.02,.21,.04,.37-10.34-2.72-20.69-4.31-31.32-2.83v48.6h32.32v-7.51c13.84,7.3,28.37,9.44,43.57,6.02,15.22-3.42,27.47-11.57,36.66-24.16,16.03-21.95,15.77-51.81-.53-73.7-16.19-21.75-44.74-30.48-70.53-21.41-25.69,9.03-40.29,32.5-41.36,54.8ZM75.79,107.99c.25-.17,.49-.35,.74-.52,13.77-9.23,28.26-17.15,43.46-23.78,.46-.2,.79-.43,.97-.95,2.25-6.46,3.41-13.12,3.49-19.94,.09-7.85,.01-15.71,.04-23.56,0-.57-.22-.83-.67-1.13-2.96-1.93-5.89-3.9-8.82-5.86-.2-.13-.36-.31-.54-.47,5.63,.48,11.16,.23,16.64-1.02-11.01-2.74-20.19-8.22-26.95-17.72,6.81,1.64,13.49,2.99,20.28,3.95V1.34h-32.33c0,.44,0,.82,0,1.2,0,19.83,.02,39.65-.03,59.48,0,2.02-.19,4.07-.59,6.05-3.14,15.7-18.11,26.07-33.92,23.58-14.47-2.28-25.19-14.79-25.19-29.41,0-19.93,0-39.86,0-59.79,0-.37,0-.74,0-1.14H0v1.02c0,19.78,0,39.55,0,59.33,0,.76,.04,1.52,.06,2.28,.14,4.92,.83,9.76,2.12,14.51,8.08,29.65,36.36,48.88,66.96,45.52,9.48-1.04,18.24-4.14,26.3-9.21,1.36-.86,2.67-1.8,4-2.7-.03-.1-.07-.19-.1-.29-3.04,.44-6.07,.89-9.11,1.33,4.87-3.43,9.96-6.47,15.35-9.4-10.42-.97-20.23,.57-29.8,4.28Zm90.97,8.8c11.36,6.07,23.31,8.52,35.97,7.28,12.64-1.24,23.89-5.95,33.65-14.07,9.76-8.13,16.38-18.33,20.03-30.56-2.29,.83-4.41,1.68-6.58,2.37-7.57,2.41-15.33,3.27-23.25,2.54-2.81-.26-5.61-.57-8.42-.83-.31-.03-.73,.08-.95,.29-9.41,8.62-21.84,10.62-33.41,5.36-.32-.15-.8-.17-1.13-.05-16.84,6.38-32.75,14.56-47.71,24.57-.44,.29-.59,.61-.58,1.12,.02,2.92,0,5.85,.01,8.77,0,.25,.03,.49,.04,.76h32.34v-7.53Zm-15.41-97.08c.11,.03,.2,.05,.3,.07,9.3,1.39,18.61,2.63,27.88,4.19,11.97,2.02,23.84,4.59,35.64,7.44,3.7,.89,7.44,1.73,11,3.05,7.87,2.93,12.48,8.63,13.48,17.07,.14,1.2,.19,2.42,.28,3.62,6.21,.59,12.39,1.17,18.58,1.75-1.28-21.03-15.94-45.4-43.17-53.99-25.54-8.05-50.5,1.62-63.98,16.8Zm-16.32,33.4c-1.12,8.29-.45,16.47-.69,24.58,7.94-2.56,15.77-5.09,23.42-7.56-5.82-.46-10.65-3.02-13.97-8.06,2.23,.09,4.43,.28,6.63,.24,2.21-.04,4.36-.56,6.61-1.44-7.94-1.08-15.18-3.59-22-7.75Zm1.95-8.78c-.32,1.22-.63,2.4-.94,3.58,.06,.07,.11,.15,.17,.22,2.26-.56,4.52-1.12,6.78-1.68-.01-.06-.03-.13-.04-.19-1.94-.63-3.88-1.25-5.96-1.93Z" fill="none"/>
  <path d="M268.94,58.36c1.08-22.3,15.67-45.77,41.36-54.8,25.79-9.07,54.33-.34,70.53,21.41,16.3,21.89,16.56,51.74,.53,73.7-9.19,12.58-21.45,20.73-36.66,24.16-15.19,3.42-29.72,1.28-43.57-6.02v7.51h-32.32v-48.6c10.63-1.48,20.98,.11,31.32,2.83-.02-.16,0-.27-.04-.37-1.62-5.19-4.31-9.68-8.64-13.07-2.73-2.15-5.93-3.34-9.26-4.11-4.11-.94-8.26-1.66-12.4-2.47-.27-.05-.54-.1-.85-.16Zm62.04,33.66c16.4,0,29.46-13.19,29.85-29.12,.39-16.27-12.58-30.5-29.81-30.53-16.67-.03-29.83,13.4-29.9,29.77-.07,16.45,13.37,29.88,29.86,29.88Z" fill="#4f6c84"/>
  <path d="M75.79,107.99c9.56-3.71,19.38-5.25,29.8-4.28-5.39,2.93-10.48,5.97-15.35,9.4,3.04-.44,6.07-.89,9.11-1.33,.03,.1,.07,.19,.1,.29-1.33,.9-2.64,1.85-4,2.7-8.06,5.07-16.82,8.17-26.3,9.21-30.6,3.36-58.88-15.87-66.96-45.52C.89,73.71,.2,68.87,.06,63.95c-.02-.76-.06-1.52-.06-2.28C0,41.88,0,22.11,0,2.33V1.32H32.38c0,.4,0,.77,0,1.14,0,19.93,0,39.86,0,59.79,0,14.61,10.72,27.13,25.19,29.41,15.81,2.49,30.78-7.89,33.92-23.58,.4-1.98,.58-4.03,.59-6.05,.04-19.83,.03-39.65,.03-59.48,0-.38,0-.76,0-1.2h32.33v15.65c-6.79-.96-13.46-2.31-20.28-3.95,6.76,9.49,15.93,14.98,26.95,17.72-5.49,1.25-11.02,1.51-16.64,1.02,.18,.16,.35,.34,.54,.47,2.94,1.96,5.87,3.93,8.82,5.86,.45,.29,.67,.56,.67,1.13-.02,7.85,.06,15.71-.04,23.56-.08,6.82-1.24,13.48-3.49,19.94-.18,.52-.51,.75-.97,.95-15.2,6.62-29.69,14.55-43.46,23.78-.25,.17-.5,.35-.74,.52Z" fill="#4f6c84"/>
  <path d="M166.76,116.78v7.53h-32.34c-.02-.26-.04-.51-.04-.76,0-2.92,0-5.85-.01-8.77,0-.51,.14-.82,.58-1.12,14.96-10.01,30.87-18.2,47.71-24.57,.33-.12,.8-.1,1.13,.05,11.57,5.26,24,3.27,33.41-5.36,.22-.2,.64-.31,.95-.29,2.81,.25,5.61,.57,8.42,.83,7.92,.73,15.68-.13,23.25-2.54,2.17-.69,4.29-1.54,6.58-2.37-3.65,12.24-10.27,22.44-20.03,30.56-9.76,8.13-21,12.84-33.65,14.07-12.66,1.24-24.61-1.21-35.97-7.28Z" fill="#4f6c84"/>
  <path d="M151.36,19.7c13.47-15.18,38.43-24.85,63.98-16.8,27.23,8.59,41.89,32.96,43.17,53.99-6.18-.58-12.36-1.17-18.58-1.75-.09-1.2-.14-2.42-.28-3.62-1-8.44-5.61-14.14-13.48-17.07-3.55-1.32-7.3-2.16-11-3.05-11.8-2.85-23.67-5.43-35.64-7.44-9.27-1.56-18.59-2.81-27.88-4.19-.09-.01-.18-.04-.3-.07Z" fill="#4f6c84"/>
  <path d="M135.04,53.1c6.82,4.16,14.06,6.67,22,7.75-2.25,.88-4.4,1.4-6.61,1.44-2.2,.04-4.4-.15-6.63-.24,3.33,5.04,8.16,7.6,13.97,8.06-7.65,2.47-15.49,5-23.42,7.56,.24-8.11-.44-16.29,.69-24.58Z" fill="#4f6c84"/>
  <path d="M136.99,44.32c2.08,.67,4.02,1.3,5.96,1.93,.01,.06,.03,.13,.04,.19-2.26,.56-4.52,1.12-6.78,1.68-.06-.07-.11-.15-.17-.22,.31-1.18,.62-2.35,.94-3.58Z" fill="#4f6c84"/>
</svg>